<svg viewBox="0 0 192 192" xmlns="http://www.w3.org/2000/svg">
  <defs>
    <linearGradient id="grad1" x1="0%" y1="0%" x2="100%" y2="100%">
      <stop offset="0%" style="stop-color:#2980b9;stop-opacity:1" />
      <stop offset="100%" style="stop-color:#3498db;stop-opacity:1" />
    </linearGradient>
  </defs>

  <!-- Background -->
  <rect width="192" height="192" fill="#0f0f23" rx="48"/>

  <!-- Gradient circle -->
  <circle cx="96" cy="96" r="88" fill="url(#grad1)" opacity="0.1"/>

  <!-- Checklist icon -->
  <g transform="translate(48, 48)">
    <!-- First task -->
    <rect x="0" y="0" width="16" height="16" fill="none" stroke="#2980b9" stroke-width="2" rx="3"/>
    <path d="M 3 8 L 6 11 L 13 4" stroke="#2980b9" stroke-width="2.5" fill="none" stroke-linecap="round" stroke-linejoin="round"/>

    <!-- Second task -->
    <rect x="0" y="24" width="16" height="16" fill="none" stroke="#3498db" stroke-width="2" rx="3"/>
    <path d="M 3 32 L 6 35 L 13 28" stroke="#3498db" stroke-width="2.5" fill="none" stroke-linecap="round" stroke-linejoin="round"/>

    <!-- Third task -->
    <rect x="0" y="48" width="16" height="16" fill="none" stroke="#3498db" stroke-width="2" rx="3"/>
    <line x1="3" y1="56" x2="13" y2="56" stroke="#3498db" stroke-width="2" stroke-linecap="round"/>

    <!-- Task lines -->
    <line x1="24" y1="8" x2="72" y2="8" stroke="#ffffff" stroke-width="2" stroke-linecap="round" opacity="0.8"/>
    <line x1="24" y1="32" x2="72" y2="32" stroke="#ffffff" stroke-width="2" stroke-linecap="round" opacity="0.8"/>
    <line x1="24" y1="56" x2="72" y2="56" stroke="#ffffff" stroke-width="2" stroke-linecap="round" opacity="0.5"/>
  </g>

  <!-- Decorative elements -->
  <circle cx="160" cy="32" r="8" fill="#2980b9" opacity="0.4"/>
  <circle cx="32" cy="160" r="6" fill="#3498db" opacity="0.3"/>
</svg>
